# xmcd CD database file
#
# Track frame offsets:
#	150
#	23920
#	42504
#	61959
#	76057
#	113138
#	127108
#	154269
#	187349
#	209492
#	239124
#	262751
#	290365
#
# Disc length: 4098 seconds
#
# Revision: 0
# Processed by: cddbd v1.5.2PL0 Copyright (c) Steve Scherf et al.
# Submitted via: Feurio! 1.68 - http://www.feurio.com
#
DISCID=c110000d
DTITLE=Popa Chubby - 2008 # Deliveries After Dark
DYEAR=2008
DGENRE=
TTITLE0=Let The Music Set You Free
TTITLE1=Sally Likes to Run
TTITLE2=Deliveries After Dark
TTITLE3=Theme From The Godfather
TTITLE4=Grown Man Crying Blues
TTITLE5=You Cant Stop Love
TTITLE6=I'll Piss On Your Grave
TTITLE7=Man Of The Blues
TTITLE8=Money Isnt't Everything
TTITLE9=2nd Avenue Shuffle
TTITLE10=You Never Loved Me
TTITLE11=Woman In My Bed Dub
TTITLE12=Oh Rock And Roll You Heartless
EXTD=
EXTT0=
EXTT1=
EXTT2=
EXTT3=
EXTT4=
EXTT5=
EXTT6=
EXTT7=
EXTT8=
EXTT9=
EXTT10=
EXTT11=
EXTT12=
PLAYORDER=
